<mxfile host="app.diagrams.net" modified="2023-05-30T06:47:31.839Z" agent="Mozilla/5.0 (Windows NT 10.0; Win64; x64) AppleWebKit/537.36 (KHTML, like Gecko) Chrome/113.0.0.0 Safari/537.36" etag="yvXPskdu6NjhtfKaQyYS" version="21.3.5" type="github">
  <diagram id="C5RBs43oDa-KdzZeNtuy" name="Page-1">
    <mxGraphModel dx="1434" dy="796" grid="1" gridSize="10" guides="1" tooltips="1" connect="1" arrows="1" fold="1" page="1" pageScale="1" pageWidth="2027" pageHeight="2169" background="none" math="0" shadow="0">
      <root>
        <mxCell id="WIyWlLk6GJQsqaUBKTNV-0" />
        <mxCell id="WIyWlLk6GJQsqaUBKTNV-1" parent="WIyWlLk6GJQsqaUBKTNV-0" />
        <mxCell id="sjpf2KDpfiBGwPgZcdzE-1" value="&lt;b&gt;Main&lt;br&gt;&lt;/b&gt;&lt;hr&gt;METODI&lt;br&gt;&lt;ul&gt;&lt;li style=&quot;text-align: left;&quot;&gt;main&lt;/li&gt;&lt;/ul&gt;" style="verticalAlign=top;align=center;overflow=fill;fontSize=12;fontFamily=Helvetica;html=1;whiteSpace=wrap;" parent="WIyWlLk6GJQsqaUBKTNV-1" vertex="1">
          <mxGeometry x="40" y="40" width="130" height="80" as="geometry" />
        </mxCell>
        <mxCell id="sjpf2KDpfiBGwPgZcdzE-2" value="&lt;p style=&quot;text-align: center; margin: 4px 0px 0px;&quot;&gt;&lt;b&gt;GamePanel&lt;/b&gt;&lt;/p&gt;&lt;hr&gt;&amp;nbsp;+ originalTileSize: int&lt;br&gt;&amp;nbsp;+ scale: int&lt;br&gt;&amp;nbsp;+ tileSize: int&lt;br&gt;&amp;nbsp;+ maxScreenCol: int&lt;br&gt;&amp;nbsp;+ maxScreenRow: int&lt;br&gt;&amp;nbsp;+ screenWidht: int&lt;br&gt;&amp;nbsp;+ screenHeight: int&lt;br&gt;&amp;nbsp;+ maxWorldCol: int&lt;br&gt;&amp;nbsp;+ maxWorldRow: int&lt;br&gt;&amp;nbsp;+ title: String&lt;br&gt;&amp;nbsp; - FPS: int&lt;br&gt;&amp;nbsp;+ fps_counter: int&lt;br&gt;&amp;nbsp;+ playtime_s: int&lt;br&gt;&amp;nbsp;+ playtime_m: int&lt;br&gt;&amp;nbsp;+ gameState: int&lt;br&gt;&amp;nbsp;+ playState: int&lt;br&gt;&amp;nbsp;+ pauseState: int&lt;br&gt;&amp;nbsp;+ dialogueState: int&lt;br&gt;&amp;nbsp;+ titleState: int&lt;br&gt;&amp;nbsp;+ characterState: int&lt;br&gt;&amp;nbsp;+ gameOverState: int&lt;br&gt;&amp;nbsp;+ commandaState: int&lt;br&gt;&amp;nbsp;+ endState: int&lt;br&gt;&amp;nbsp;&lt;hr&gt;&amp;nbsp;+ GamePanel()&lt;br&gt;&amp;nbsp;+ setUpGame(): void&lt;br&gt;&amp;nbsp;+ startGameSthread(): void&lt;br&gt;&amp;nbsp;+ endGameThread(): void&lt;br&gt;&amp;nbsp;+ run(): void&lt;br&gt;&amp;nbsp;+ update(): void&lt;br&gt;&amp;nbsp;+ paintComponent(): void&lt;br&gt;&amp;nbsp;+ playMusic(): void&lt;br&gt;&amp;nbsp;+ stopMusic(): void&lt;br&gt;&amp;nbsp;+ playSE(): void&lt;br&gt;&amp;nbsp;+ endGame(): void&lt;br&gt;" style="verticalAlign=top;align=left;overflow=fill;fontSize=12;fontFamily=Helvetica;html=1;whiteSpace=wrap;" parent="WIyWlLk6GJQsqaUBKTNV-1" vertex="1">
          <mxGeometry x="240" y="40" width="290" height="580" as="geometry" />
        </mxCell>
        <mxCell id="sjpf2KDpfiBGwPgZcdzE-3" value="" style="endArrow=diamondThin;endFill=0;endSize=24;html=1;rounded=0;" parent="WIyWlLk6GJQsqaUBKTNV-1" target="sjpf2KDpfiBGwPgZcdzE-1" edge="1">
          <mxGeometry width="160" relative="1" as="geometry">
            <mxPoint x="230" y="80" as="sourcePoint" />
            <mxPoint x="450" y="149.5" as="targetPoint" />
          </mxGeometry>
        </mxCell>
        <mxCell id="sjpf2KDpfiBGwPgZcdzE-4" value="&lt;p style=&quot;margin:0px;margin-top:4px;text-align:center;&quot;&gt;&lt;/p&gt;&lt;div style=&quot;text-align: center; height: 2px;&quot;&gt;&lt;b&gt;JPanel&lt;/b&gt;&lt;/div&gt;&lt;div style=&quot;text-align: center; height: 2px;&quot;&gt;&lt;b&gt;&lt;br&gt;&lt;/b&gt;&lt;/div&gt;&lt;div style=&quot;text-align: center; height: 2px;&quot;&gt;&lt;b&gt;&lt;br&gt;&lt;/b&gt;&lt;/div&gt;&lt;div style=&quot;text-align: center; height: 2px;&quot;&gt;&lt;b&gt;&lt;br&gt;&lt;/b&gt;&lt;/div&gt;&lt;div style=&quot;text-align: center; height: 2px;&quot;&gt;&lt;b&gt;&lt;br&gt;&lt;/b&gt;&lt;/div&gt;&lt;div style=&quot;text-align: center; height: 2px;&quot;&gt;&lt;b&gt;&lt;br&gt;&lt;/b&gt;&lt;/div&gt;&lt;div style=&quot;text-align: center; height: 2px;&quot;&gt;&lt;b&gt;&lt;br&gt;&lt;/b&gt;&lt;/div&gt;&lt;div style=&quot;text-align: center; height: 2px;&quot;&gt;&lt;b&gt;&lt;br&gt;&lt;/b&gt;&lt;/div&gt;&lt;div style=&quot;text-align: center; height: 2px;&quot;&gt;&lt;b&gt;&lt;br&gt;&lt;/b&gt;&lt;/div&gt;&lt;div style=&quot;text-align: center; height: 2px;&quot;&gt;&lt;hr&gt;&lt;br&gt;&lt;/div&gt;&lt;div style=&quot;text-align: center; height: 2px;&quot;&gt;&lt;br&gt;&lt;/div&gt;&lt;div style=&quot;text-align: center; height: 2px;&quot;&gt;&lt;br&gt;&lt;/div&gt;&lt;div style=&quot;text-align: center; height: 2px;&quot;&gt;&lt;br&gt;&lt;/div&gt;&lt;div style=&quot;text-align: center; height: 2px;&quot;&gt;&lt;br&gt;&lt;/div&gt;&lt;div style=&quot;text-align: center; height: 2px;&quot;&gt;classe della libreria swing&lt;/div&gt;" style="verticalAlign=top;align=left;overflow=fill;fontSize=12;fontFamily=Helvetica;html=1;whiteSpace=wrap;" parent="WIyWlLk6GJQsqaUBKTNV-1" vertex="1">
          <mxGeometry x="40" y="160" width="130" height="90" as="geometry" />
        </mxCell>
        <mxCell id="sjpf2KDpfiBGwPgZcdzE-5" value="Extends" style="endArrow=block;endSize=16;endFill=0;html=1;rounded=0;exitX=-0.012;exitY=0.285;exitDx=0;exitDy=0;entryX=1;entryY=0.5;entryDx=0;entryDy=0;exitPerimeter=0;" parent="WIyWlLk6GJQsqaUBKTNV-1" source="sjpf2KDpfiBGwPgZcdzE-2" target="sjpf2KDpfiBGwPgZcdzE-4" edge="1">
          <mxGeometry width="160" relative="1" as="geometry">
            <mxPoint x="310" y="410" as="sourcePoint" />
            <mxPoint x="470" y="410" as="targetPoint" />
          </mxGeometry>
        </mxCell>
        <mxCell id="sjpf2KDpfiBGwPgZcdzE-6" value="&lt;p style=&quot;margin:0px;margin-top:4px;text-align:center;&quot;&gt;&lt;i&gt;&lt;b&gt;Runnable&lt;/b&gt;&lt;/i&gt;&lt;/p&gt;&lt;hr&gt;interfaccia che implementa il metodo run" style="verticalAlign=top;align=left;overflow=fill;fontSize=12;fontFamily=Helvetica;html=1;whiteSpace=wrap;" parent="WIyWlLk6GJQsqaUBKTNV-1" vertex="1">
          <mxGeometry x="40" y="280" width="130" height="80" as="geometry" />
        </mxCell>
        <mxCell id="sjpf2KDpfiBGwPgZcdzE-9" value="" style="endArrow=block;dashed=1;endFill=0;endSize=12;html=1;rounded=0;exitX=0.01;exitY=0.515;exitDx=0;exitDy=0;entryX=1;entryY=0.75;entryDx=0;entryDy=0;exitPerimeter=0;" parent="WIyWlLk6GJQsqaUBKTNV-1" source="sjpf2KDpfiBGwPgZcdzE-2" target="sjpf2KDpfiBGwPgZcdzE-6" edge="1">
          <mxGeometry width="160" relative="1" as="geometry">
            <mxPoint x="310" y="410" as="sourcePoint" />
            <mxPoint x="470" y="410" as="targetPoint" />
          </mxGeometry>
        </mxCell>
        <mxCell id="sjpf2KDpfiBGwPgZcdzE-10" value="" style="endArrow=diamondThin;endFill=0;endSize=24;html=1;rounded=0;entryX=1;entryY=0.5;entryDx=0;entryDy=0;" parent="WIyWlLk6GJQsqaUBKTNV-1" target="sjpf2KDpfiBGwPgZcdzE-2" edge="1">
          <mxGeometry width="160" relative="1" as="geometry">
            <mxPoint x="1350" y="330" as="sourcePoint" />
            <mxPoint x="510" y="420" as="targetPoint" />
            <Array as="points" />
          </mxGeometry>
        </mxCell>
        <mxCell id="sjpf2KDpfiBGwPgZcdzE-12" value="&lt;p style=&quot;margin:0px;margin-top:4px;text-align:center;&quot;&gt;&lt;b&gt;AssetSetter&lt;/b&gt;&lt;/p&gt;&lt;hr&gt;&amp;nbsp;+ setObject(): void&lt;br&gt;&amp;nbsp;+ setNpc(): void&lt;br&gt;&amp;nbsp;+ setEnemy(): void" style="verticalAlign=top;align=left;overflow=fill;fontSize=12;fontFamily=Helvetica;html=1;whiteSpace=wrap;" parent="WIyWlLk6GJQsqaUBKTNV-1" vertex="1">
          <mxGeometry x="640" y="80" width="140" height="110" as="geometry" />
        </mxCell>
        <mxCell id="sjpf2KDpfiBGwPgZcdzE-14" value="" style="endArrow=none;html=1;rounded=0;entryX=0.5;entryY=1;entryDx=0;entryDy=0;" parent="WIyWlLk6GJQsqaUBKTNV-1" target="sjpf2KDpfiBGwPgZcdzE-12" edge="1">
          <mxGeometry width="50" height="50" relative="1" as="geometry">
            <mxPoint x="710" y="330" as="sourcePoint" />
            <mxPoint x="990" y="210" as="targetPoint" />
          </mxGeometry>
        </mxCell>
        <mxCell id="sjpf2KDpfiBGwPgZcdzE-15" value="&lt;p style=&quot;margin:0px;margin-top:4px;text-align:center;&quot;&gt;&lt;b&gt;CollisionChecker&lt;/b&gt;&lt;/p&gt;&lt;hr&gt;&amp;nbsp;+ checkTile(): void&lt;br&gt;&amp;nbsp;+ checkObject(): int&lt;br&gt;&amp;nbsp;+ checkEntity(): int&lt;br&gt;&amp;nbsp;+ checkPlayer(): void" style="verticalAlign=top;align=left;overflow=fill;fontSize=12;fontFamily=Helvetica;html=1;whiteSpace=wrap;" parent="WIyWlLk6GJQsqaUBKTNV-1" vertex="1">
          <mxGeometry x="840" y="80" width="140" height="110" as="geometry" />
        </mxCell>
        <mxCell id="sjpf2KDpfiBGwPgZcdzE-17" value="" style="endArrow=none;html=1;rounded=0;entryX=0.5;entryY=1;entryDx=0;entryDy=0;" parent="WIyWlLk6GJQsqaUBKTNV-1" target="sjpf2KDpfiBGwPgZcdzE-15" edge="1">
          <mxGeometry width="50" height="50" relative="1" as="geometry">
            <mxPoint x="910" y="330" as="sourcePoint" />
            <mxPoint x="940" y="180" as="targetPoint" />
          </mxGeometry>
        </mxCell>
        <mxCell id="sjpf2KDpfiBGwPgZcdzE-18" value="&lt;p style=&quot;margin:0px;margin-top:4px;text-align:center;&quot;&gt;&lt;b&gt;KeyHandler&lt;/b&gt;&lt;/p&gt;&lt;hr&gt;&amp;nbsp;+ upPressed: boolean&lt;br&gt;&amp;nbsp;+ downPressed: boolean&lt;br&gt;&amp;nbsp;+ rightPressed: boolean&lt;br&gt;&amp;nbsp;+ leftPressed: boolean&lt;br&gt;&amp;nbsp;+ shiftPressed: boolean&lt;br&gt;&amp;nbsp;+ enterPressed: boolean&lt;hr&gt;&amp;nbsp;+ keyTyped(): void&lt;br&gt;&amp;nbsp;+ keyReleased(): void&lt;br&gt;&amp;nbsp;+ keyPressed(): void" style="verticalAlign=top;align=left;overflow=fill;fontSize=12;fontFamily=Helvetica;html=1;whiteSpace=wrap;" parent="WIyWlLk6GJQsqaUBKTNV-1" vertex="1">
          <mxGeometry x="640" y="430" width="160" height="370" as="geometry" />
        </mxCell>
        <mxCell id="sjpf2KDpfiBGwPgZcdzE-19" value="" style="endArrow=none;html=1;rounded=0;exitX=0.5;exitY=0;exitDx=0;exitDy=0;" parent="WIyWlLk6GJQsqaUBKTNV-1" source="sjpf2KDpfiBGwPgZcdzE-18" edge="1">
          <mxGeometry width="50" height="50" relative="1" as="geometry">
            <mxPoint x="630" y="470" as="sourcePoint" />
            <mxPoint x="720" y="330" as="targetPoint" />
          </mxGeometry>
        </mxCell>
        <mxCell id="FVBr_ZRkSOxFZDrpTWjj-0" value="&lt;p style=&quot;margin:0px;margin-top:4px;text-align:center;&quot;&gt;&lt;b&gt;UI&lt;/b&gt;&lt;/p&gt;&lt;hr&gt;&amp;nbsp;- pixel_font: Font&lt;br&gt;&amp;nbsp;- heart1: BufferedImage&lt;br&gt;&amp;nbsp;- heart2: BufferedImage&lt;br&gt;&amp;nbsp;- heart3: BufferedImage&lt;br&gt;+ messageOn: boolean&lt;br&gt;+ message: String&lt;br&gt;+ messaggeCounter: int&lt;br&gt;+ g2: Graphics2D&lt;br&gt;+ currentDialogue: String&lt;br&gt;+ commandNumber: int&lt;br&gt;+ slotCol: int&lt;br&gt;+ slotRow: int&lt;hr&gt;+ draw(): void&lt;br&gt;+&amp;nbsp;getItemIndexOnSlot(): int&lt;br&gt;+&amp;nbsp;showMessage(): void&lt;br&gt;" style="verticalAlign=top;align=left;overflow=fill;fontSize=12;fontFamily=Helvetica;html=1;whiteSpace=wrap;" parent="WIyWlLk6GJQsqaUBKTNV-1" vertex="1">
          <mxGeometry x="840" y="430" width="180" height="370" as="geometry" />
        </mxCell>
        <mxCell id="FVBr_ZRkSOxFZDrpTWjj-1" value="" style="endArrow=none;html=1;rounded=0;entryX=0.5;entryY=0;entryDx=0;entryDy=0;" parent="WIyWlLk6GJQsqaUBKTNV-1" target="FVBr_ZRkSOxFZDrpTWjj-0" edge="1">
          <mxGeometry width="50" height="50" relative="1" as="geometry">
            <mxPoint x="930" y="330" as="sourcePoint" />
            <mxPoint x="750" y="370" as="targetPoint" />
          </mxGeometry>
        </mxCell>
        <mxCell id="FVBr_ZRkSOxFZDrpTWjj-2" value="&lt;p style=&quot;margin:0px;margin-top:4px;text-align:center;&quot;&gt;&lt;b&gt;UtilityTool&lt;/b&gt;&lt;/p&gt;&lt;hr&gt;+ scaleImage(): BufferedImage" style="verticalAlign=top;align=left;overflow=fill;fontSize=12;fontFamily=Helvetica;html=1;whiteSpace=wrap;" parent="WIyWlLk6GJQsqaUBKTNV-1" vertex="1">
          <mxGeometry x="1040" y="430" width="170" height="60" as="geometry" />
        </mxCell>
        <mxCell id="YWYXHstFESj4iFv3OfK1-0" value="" style="endArrow=none;html=1;rounded=0;entryX=0.5;entryY=0;entryDx=0;entryDy=0;" parent="WIyWlLk6GJQsqaUBKTNV-1" target="FVBr_ZRkSOxFZDrpTWjj-2" edge="1">
          <mxGeometry width="50" height="50" relative="1" as="geometry">
            <mxPoint x="1125" y="330" as="sourcePoint" />
            <mxPoint x="960" y="430" as="targetPoint" />
          </mxGeometry>
        </mxCell>
        <mxCell id="YWYXHstFESj4iFv3OfK1-1" value="&lt;p style=&quot;margin:0px;margin-top:4px;text-align:center;&quot;&gt;&lt;b&gt;Tile manager&lt;/b&gt;&lt;/p&gt;&lt;hr&gt;&amp;nbsp;+tileMapNum: int[][]&lt;br&gt;+&amp;nbsp;fileNames: ArrayList&lt;span style=&quot;border: 0px solid rgb(217, 217, 227); box-sizing: border-box; --tw-border-spacing-x:0; --tw-border-spacing-y:0; --tw-translate-x:0; --tw-translate-y:0; --tw-rotate:0; --tw-skew-x:0; --tw-skew-y:0; --tw-scale-x:1; --tw-scale-y:1; --tw-pan-x: ; --tw-pan-y: ; --tw-pinch-zoom: ; --tw-scroll-snap-strictness:proximity; --tw-gradient-from-position: ; --tw-gradient-via-position: ; --tw-gradient-to-position: ; --tw-ordinal: ; --tw-slashed-zero: ; --tw-numeric-figure: ; --tw-numeric-spacing: ; --tw-numeric-fraction: ; --tw-ring-inset: ; --tw-ring-offset-width:0px; --tw-ring-offset-color:#fff; --tw-ring-color:rgba(69,89,164,0.5); --tw-ring-offset-shadow:0 0 transparent; --tw-ring-shadow:0 0 transparent; --tw-shadow:0 0 transparent; --tw-shadow-colored:0 0 transparent; --tw-blur: ; --tw-brightness: ; --tw-contrast: ; --tw-grayscale: ; --tw-hue-rotate: ; --tw-invert: ; --tw-saturate: ; --tw-sepia: ; --tw-drop-shadow: ; --tw-backdrop-blur: ; --tw-backdrop-brightness: ; --tw-backdrop-contrast: ; --tw-backdrop-grayscale: ; --tw-backdrop-hue-rotate: ; --tw-backdrop-invert: ; --tw-backdrop-opacity: ; --tw-backdrop-saturate: ; --tw-backdrop-sepia: ; color: rgb(255, 255, 255); font-family: &amp;quot;Söhne Mono&amp;quot;, Monaco, &amp;quot;Andale Mono&amp;quot;, &amp;quot;Ubuntu Mono&amp;quot;, monospace; font-size: 14px; background-color: rgb(0, 0, 0);&quot; class=&quot;xml&quot;&gt;&lt;span style=&quot;border: 0px solid rgb(217, 217, 227); box-sizing: border-box; --tw-border-spacing-x:0; --tw-border-spacing-y:0; --tw-translate-x:0; --tw-translate-y:0; --tw-rotate:0; --tw-skew-x:0; --tw-skew-y:0; --tw-scale-x:1; --tw-scale-y:1; --tw-pan-x: ; --tw-pan-y: ; --tw-pinch-zoom: ; --tw-scroll-snap-strictness:proximity; --tw-gradient-from-position: ; --tw-gradient-via-position: ; --tw-gradient-to-position: ; --tw-ordinal: ; --tw-slashed-zero: ; --tw-numeric-figure: ; --tw-numeric-spacing: ; --tw-numeric-fraction: ; --tw-ring-inset: ; --tw-ring-offset-width:0px; --tw-ring-offset-color:#fff; --tw-ring-color:rgba(69,89,164,0.5); --tw-ring-offset-shadow:0 0 transparent; --tw-ring-shadow:0 0 transparent; --tw-shadow:0 0 transparent; --tw-shadow-colored:0 0 transparent; --tw-blur: ; --tw-brightness: ; --tw-contrast: ; --tw-grayscale: ; --tw-hue-rotate: ; --tw-invert: ; --tw-saturate: ; --tw-sepia: ; --tw-drop-shadow: ; --tw-backdrop-blur: ; --tw-backdrop-brightness: ; --tw-backdrop-contrast: ; --tw-backdrop-grayscale: ; --tw-backdrop-hue-rotate: ; --tw-backdrop-invert: ; --tw-backdrop-opacity: ; --tw-backdrop-saturate: ; --tw-backdrop-sepia: ;&quot; class=&quot;hljs-tag&quot;&gt;&amp;lt;&lt;span style=&quot;border: 0px solid rgb(217, 217, 227); box-sizing: border-box; --tw-border-spacing-x:0; --tw-border-spacing-y:0; --tw-translate-x:0; --tw-translate-y:0; --tw-rotate:0; --tw-skew-x:0; --tw-skew-y:0; --tw-scale-x:1; --tw-scale-y:1; --tw-pan-x: ; --tw-pan-y: ; --tw-pinch-zoom: ; --tw-scroll-snap-strictness:proximity; --tw-gradient-from-position: ; --tw-gradient-via-position: ; --tw-gradient-to-position: ; --tw-ordinal: ; --tw-slashed-zero: ; --tw-numeric-figure: ; --tw-numeric-spacing: ; --tw-numeric-fraction: ; --tw-ring-inset: ; --tw-ring-offset-width:0px; --tw-ring-offset-color:#fff; --tw-ring-color:rgba(69,89,164,0.5); --tw-ring-offset-shadow:0 0 transparent; --tw-ring-shadow:0 0 transparent; --tw-shadow:0 0 transparent; --tw-shadow-colored:0 0 transparent; --tw-blur: ; --tw-brightness: ; --tw-contrast: ; --tw-grayscale: ; --tw-hue-rotate: ; --tw-invert: ; --tw-saturate: ; --tw-sepia: ; --tw-drop-shadow: ; --tw-backdrop-blur: ; --tw-backdrop-brightness: ; --tw-backdrop-contrast: ; --tw-backdrop-grayscale: ; --tw-backdrop-hue-rotate: ; --tw-backdrop-invert: ; --tw-backdrop-opacity: ; --tw-backdrop-saturate: ; --tw-backdrop-sepia: ;&quot; class=&quot;hljs-name&quot;&gt;String&lt;/span&gt;&amp;gt;&lt;/span&gt;&lt;/span&gt;&lt;hr&gt;+ readTileData(): void&lt;br&gt;+ draw(): void&lt;br&gt;+ getTileImage(): void&lt;br&gt;+ setUpTile(): void&lt;br&gt;+ loadMap(): void" style="verticalAlign=top;align=left;overflow=fill;fontSize=12;fontFamily=Helvetica;html=1;whiteSpace=wrap;" parent="WIyWlLk6GJQsqaUBKTNV-1" vertex="1">
          <mxGeometry x="1040" y="80" width="160" height="180" as="geometry" />
        </mxCell>
        <mxCell id="YWYXHstFESj4iFv3OfK1-2" value="" style="endArrow=none;html=1;rounded=0;entryX=0.5;entryY=1;entryDx=0;entryDy=0;" parent="WIyWlLk6GJQsqaUBKTNV-1" target="YWYXHstFESj4iFv3OfK1-1" edge="1">
          <mxGeometry width="50" height="50" relative="1" as="geometry">
            <mxPoint x="1120" y="330" as="sourcePoint" />
            <mxPoint x="1250" y="330" as="targetPoint" />
          </mxGeometry>
        </mxCell>
        <mxCell id="YWYXHstFESj4iFv3OfK1-3" value="" style="endArrow=diamondThin;endFill=0;endSize=24;html=1;rounded=0;entryX=1.009;entryY=0.108;entryDx=0;entryDy=0;exitX=0;exitY=0.25;exitDx=0;exitDy=0;entryPerimeter=0;" parent="WIyWlLk6GJQsqaUBKTNV-1" source="YWYXHstFESj4iFv3OfK1-4" target="YWYXHstFESj4iFv3OfK1-1" edge="1">
          <mxGeometry width="160" relative="1" as="geometry">
            <mxPoint x="1270" y="125" as="sourcePoint" />
            <mxPoint x="1530" y="360" as="targetPoint" />
          </mxGeometry>
        </mxCell>
        <mxCell id="YWYXHstFESj4iFv3OfK1-4" value="&lt;p style=&quot;margin:0px;margin-top:4px;text-align:center;&quot;&gt;&lt;b&gt;Tile&lt;/b&gt;&lt;/p&gt;&lt;hr size=&quot;1&quot;&gt;&lt;div style=&quot;height:2px;&quot;&gt;+ image: BufferedImage&lt;/div&gt;&lt;div style=&quot;height:2px;&quot;&gt;&lt;br&gt;&lt;/div&gt;&lt;div style=&quot;height:2px;&quot;&gt;&lt;br&gt;&lt;/div&gt;&lt;div style=&quot;height:2px;&quot;&gt;&lt;br&gt;&lt;/div&gt;&lt;div style=&quot;height:2px;&quot;&gt;&lt;br&gt;&lt;/div&gt;&lt;div style=&quot;height:2px;&quot;&gt;&lt;br&gt;&lt;/div&gt;&lt;div style=&quot;height:2px;&quot;&gt;+ collision: boolean&lt;/div&gt;&lt;div style=&quot;height:2px;&quot;&gt;&lt;br&gt;&lt;/div&gt;" style="verticalAlign=top;align=left;overflow=fill;fontSize=12;fontFamily=Helvetica;html=1;whiteSpace=wrap;" parent="WIyWlLk6GJQsqaUBKTNV-1" vertex="1">
          <mxGeometry x="1280" y="80" width="140" height="80" as="geometry" />
        </mxCell>
        <mxCell id="YWYXHstFESj4iFv3OfK1-6" value="" style="endArrow=diamondThin;endFill=0;endSize=24;html=1;rounded=0;entryX=0.5;entryY=1;entryDx=0;entryDy=0;" parent="WIyWlLk6GJQsqaUBKTNV-1" target="sjpf2KDpfiBGwPgZcdzE-2" edge="1">
          <mxGeometry width="160" relative="1" as="geometry">
            <mxPoint x="385" y="1240" as="sourcePoint" />
            <mxPoint x="470" y="750" as="targetPoint" />
            <Array as="points">
              <mxPoint x="385" y="1240" />
            </Array>
          </mxGeometry>
        </mxCell>
        <mxCell id="YWYXHstFESj4iFv3OfK1-7" value="&lt;p style=&quot;margin:0px;margin-top:4px;text-align:center;&quot;&gt;&lt;b&gt;MON_spider&lt;/b&gt;&lt;/p&gt;&lt;hr&gt;&lt;div&gt;int coin&lt;/div&gt;&lt;div&gt;String direction&lt;/div&gt;&lt;div&gt;String name&lt;/div&gt;&lt;div&gt;int speed&lt;/div&gt;&lt;div&gt;int maxLife&lt;/div&gt;&lt;div&gt;int life&lt;/div&gt;&lt;div&gt;int damage&lt;/div&gt;&lt;div&gt;Rectangle solidArea&lt;/div&gt;&lt;div&gt;int solidAreaDefaultX&lt;/div&gt;&lt;div&gt;int solidAreaDefaultY&lt;/div&gt;&lt;div&gt;int typeON_Spider(GamePanel gp)&lt;/div&gt;&lt;div&gt;private void getImage()&lt;/div&gt;&lt;div&gt;public void setAction()&lt;/div&gt;&lt;div&gt;@Override public void update()&lt;/div&gt;&lt;div&gt;public void killed()&lt;/div&gt;&lt;div&gt;@Override public void damageReaction()&lt;/div&gt;" style="verticalAlign=top;align=left;overflow=fill;fontSize=12;fontFamily=Helvetica;html=1;whiteSpace=wrap;" parent="WIyWlLk6GJQsqaUBKTNV-1" vertex="1">
          <mxGeometry x="500" y="890" width="230" height="270" as="geometry" />
        </mxCell>
        <mxCell id="YWYXHstFESj4iFv3OfK1-8" value="" style="endArrow=none;html=1;rounded=0;exitX=0.5;exitY=1;exitDx=0;exitDy=0;" parent="WIyWlLk6GJQsqaUBKTNV-1" source="YWYXHstFESj4iFv3OfK1-7" edge="1">
          <mxGeometry width="50" height="50" relative="1" as="geometry">
            <mxPoint x="850" y="900" as="sourcePoint" />
            <mxPoint x="615" y="1240" as="targetPoint" />
          </mxGeometry>
        </mxCell>
        <mxCell id="z-6VyDmkETw24ebPGws4-0" value="&lt;p style=&quot;margin:0px;margin-top:4px;text-align:center;&quot;&gt;&lt;b&gt;Player&lt;/b&gt;&lt;/p&gt;&lt;hr&gt;&lt;div&gt;screenX: int&lt;/div&gt;&lt;div&gt;screenY: int&lt;/div&gt;&lt;div&gt;checkPointX: int&lt;/div&gt;&lt;div&gt;checkPointY: int&lt;/div&gt;&lt;div&gt;hasKey: int&lt;/div&gt;&lt;div&gt;coins: int&lt;/div&gt;&lt;div&gt;inventory: Item[]&lt;/div&gt;&lt;div&gt;inventorySize: int&lt;/div&gt;&lt;div&gt;keyHandler: KeyHandler&lt;/div&gt;&lt;hr&gt;&lt;br&gt;&lt;div&gt;Player(GamePanel gp, KeyHadler keyH)&lt;/div&gt;&lt;div&gt;setDefaultValues()&lt;/div&gt;&lt;div&gt;setItems()&lt;/div&gt;&lt;div&gt;getAttack()&lt;/div&gt;&lt;div&gt;getDefence()&lt;/div&gt;&lt;div&gt;getSpeed()&lt;/div&gt;&lt;div&gt;getPlayerImage()&lt;/div&gt;&lt;div&gt;update()&lt;/div&gt;&lt;div&gt;attacking()&lt;/div&gt;&lt;div&gt;damageMonster(int index)&lt;/div&gt;&lt;div&gt;interactEnemy(int index)&lt;/div&gt;&lt;div&gt;intercatNPC(int index)&lt;/div&gt;&lt;div&gt;addObject(int i)&lt;/div&gt;&lt;div&gt;pickUpObject(int index)&lt;/div&gt;&lt;div&gt;draw(Graphics2D g2)&lt;/div&gt;" style="verticalAlign=top;align=left;overflow=fill;fontSize=12;fontFamily=Helvetica;html=1;whiteSpace=wrap;" vertex="1" parent="WIyWlLk6GJQsqaUBKTNV-1">
          <mxGeometry x="1280" y="440" width="140" height="430" as="geometry" />
        </mxCell>
        <mxCell id="z-6VyDmkETw24ebPGws4-1" value="" style="endArrow=none;html=1;rounded=0;exitX=0.5;exitY=0;exitDx=0;exitDy=0;" edge="1" parent="WIyWlLk6GJQsqaUBKTNV-1" source="z-6VyDmkETw24ebPGws4-0">
          <mxGeometry width="50" height="50" relative="1" as="geometry">
            <mxPoint x="930" y="30" as="sourcePoint" />
            <mxPoint x="1350" y="330" as="targetPoint" />
          </mxGeometry>
        </mxCell>
        <mxCell id="z-6VyDmkETw24ebPGws4-2" value="&lt;p style=&quot;margin:0px;margin-top:4px;text-align:center;&quot;&gt;&lt;b&gt;NPC&lt;/b&gt;&lt;/p&gt;&lt;hr&gt;&lt;div&gt;String direction&lt;/div&gt;&lt;div&gt;int speed&lt;/div&gt;&lt;div&gt;BufferedImage down1&lt;/div&gt;&lt;div&gt;String name&lt;/div&gt;&lt;div&gt;int type&lt;/div&gt;&lt;div&gt;String defaultDirection&lt;/div&gt;&lt;div&gt;boolean noMovement&lt;/div&gt;&lt;div&gt;String[] dialogues&lt;/div&gt;&lt;hr&gt;&lt;div&gt;public NPC_wen(GamePanel gp)&lt;/div&gt;&lt;div&gt;private void getPlayerImage()&lt;/div&gt;&lt;div&gt;public void setAction()&lt;/div&gt;&lt;div&gt;private void setDialogue()&lt;/div&gt;&lt;div&gt;public void speak()&lt;/div&gt;" style="verticalAlign=top;align=left;overflow=fill;fontSize=12;fontFamily=Helvetica;html=1;whiteSpace=wrap;" vertex="1" parent="WIyWlLk6GJQsqaUBKTNV-1">
          <mxGeometry x="850" y="890" width="230" height="250" as="geometry" />
        </mxCell>
        <mxCell id="z-6VyDmkETw24ebPGws4-3" value="" style="endArrow=none;html=1;rounded=0;" edge="1" parent="WIyWlLk6GJQsqaUBKTNV-1">
          <mxGeometry width="50" height="50" relative="1" as="geometry">
            <mxPoint x="390" y="1240" as="sourcePoint" />
            <mxPoint x="1080" y="1240" as="targetPoint" />
          </mxGeometry>
        </mxCell>
        <mxCell id="z-6VyDmkETw24ebPGws4-4" value="" style="endArrow=none;html=1;rounded=0;entryX=0.5;entryY=1;entryDx=0;entryDy=0;" edge="1" parent="WIyWlLk6GJQsqaUBKTNV-1" target="z-6VyDmkETw24ebPGws4-2">
          <mxGeometry width="50" height="50" relative="1" as="geometry">
            <mxPoint x="965" y="1240" as="sourcePoint" />
            <mxPoint x="1010" y="1100" as="targetPoint" />
          </mxGeometry>
        </mxCell>
        <mxCell id="z-6VyDmkETw24ebPGws4-5" value="&lt;p style=&quot;margin:0px;margin-top:4px;text-align:center;&quot;&gt;&lt;b&gt;Entity&lt;/b&gt;&lt;/p&gt;&lt;hr&gt;&lt;div&gt;public int worldX, worldY&lt;/div&gt;&lt;div&gt;protected GamePanel gp&lt;/div&gt;&lt;div&gt;protected int defaultSpeed&lt;/div&gt;&lt;div&gt;public int maxLife&lt;/div&gt;&lt;div&gt;public int life&lt;/div&gt;&lt;div&gt;public boolean invincible&lt;/div&gt;&lt;div&gt;protected int invincibleCounter&lt;/div&gt;&lt;div&gt;public int speed&lt;/div&gt;&lt;div&gt;protected int baseSpeed&lt;/div&gt;&lt;div&gt;public String name&lt;/div&gt;&lt;div&gt;protected int type&lt;/div&gt;&lt;div&gt;public boolean alive&lt;/div&gt;&lt;div&gt;public boolean dying&lt;/div&gt;&lt;div&gt;protected boolean hpBarOn&lt;/div&gt;&lt;div&gt;protected int hpBArCounter&lt;/div&gt;&lt;div&gt;public int damage&lt;/div&gt;&lt;div&gt;public int defence&lt;/div&gt;&lt;div&gt;public int strenght&lt;/div&gt;&lt;div&gt;public int dexterity&lt;/div&gt;&lt;div&gt;public SuperObject currentWeapon&lt;/div&gt;&lt;div&gt;public SuperObject currentShield&lt;/div&gt;&lt;div&gt;protected BufferedImage up1, up2, up3, up4, left1, left2, left3, left4, right1, right2, right3, right4, down1, down2, down3, down4&lt;/div&gt;&lt;div&gt;protected BufferedImage attackUp, attackDown, attackLeft, attackRight&lt;/div&gt;&lt;div&gt;public String direction&lt;/div&gt;&lt;div&gt;protected int spriteCounter&lt;/div&gt;&lt;div&gt;protected int spriteNum&lt;/div&gt;&lt;div&gt;protected int dyingCounter&lt;/div&gt;&lt;div&gt;protected BufferedImage currentAnim&lt;/div&gt;&lt;div&gt;protected boolean animationOn&lt;/div&gt;&lt;div&gt;protected boolean fly&lt;/div&gt;&lt;div&gt;public Rectangle solidArea&lt;/div&gt;&lt;div&gt;public Rectangle attackArea&lt;/div&gt;&lt;div&gt;public int solidAreaDefaultX&lt;/div&gt;&lt;div&gt;public int solidAreaDefaultY&lt;/div&gt;&lt;div&gt;public boolean collisionIsOn&lt;/div&gt;&lt;div&gt;protected boolean noMovement&lt;/div&gt;&lt;div&gt;protected String[] dialogues&lt;/div&gt;&lt;div&gt;protected int dialogueIndex&lt;/div&gt;&lt;div&gt;protected boolean attacking&lt;/div&gt;&lt;div&gt;protected int actionLockCounter&lt;/div&gt;&lt;div&gt;protected boolean onPath&lt;/div&gt;&lt;div&gt;protected String defaultDirection&lt;/div&gt;&lt;hr&gt;&lt;div&gt;killed()&lt;/div&gt;&lt;div&gt;setAction()&lt;/div&gt;&lt;div&gt;damageReaction()&lt;/div&gt;&lt;div&gt;checkCollision()&lt;/div&gt;&lt;div&gt;update()&lt;/div&gt;&lt;div&gt;draw(Graphics2D g2)&lt;/div&gt;&lt;div&gt;dyingAnimation(Graphics2D g2)&lt;/div&gt;&lt;div&gt;changeAlpha(Graphics2D g2, float alphaValue)&lt;/div&gt;&lt;div&gt;speak()&lt;/div&gt;&lt;div&gt;speak(int i)&lt;/div&gt;&lt;div&gt;searchPath(int goalCol, int GoalRow)&lt;/div&gt;" style="verticalAlign=top;align=left;overflow=fill;fontSize=12;fontFamily=Helvetica;html=1;whiteSpace=wrap;" vertex="1" parent="WIyWlLk6GJQsqaUBKTNV-1">
          <mxGeometry x="1200" y="1000" width="520" height="830" as="geometry" />
        </mxCell>
        <mxCell id="z-6VyDmkETw24ebPGws4-7" value="" style="endArrow=none;html=1;rounded=0;" edge="1" parent="WIyWlLk6GJQsqaUBKTNV-1">
          <mxGeometry width="50" height="50" relative="1" as="geometry">
            <mxPoint x="600" y="860" as="sourcePoint" />
            <mxPoint x="1200" y="860" as="targetPoint" />
          </mxGeometry>
        </mxCell>
        <mxCell id="z-6VyDmkETw24ebPGws4-9" value="" style="endArrow=none;html=1;rounded=0;" edge="1" parent="WIyWlLk6GJQsqaUBKTNV-1" source="YWYXHstFESj4iFv3OfK1-7">
          <mxGeometry width="50" height="50" relative="1" as="geometry">
            <mxPoint x="960" y="1150" as="sourcePoint" />
            <mxPoint x="600" y="860" as="targetPoint" />
          </mxGeometry>
        </mxCell>
        <mxCell id="z-6VyDmkETw24ebPGws4-10" value="" style="endArrow=none;html=1;rounded=0;entryX=0.5;entryY=0;entryDx=0;entryDy=0;" edge="1" parent="WIyWlLk6GJQsqaUBKTNV-1" target="z-6VyDmkETw24ebPGws4-2">
          <mxGeometry width="50" height="50" relative="1" as="geometry">
            <mxPoint x="965" y="860" as="sourcePoint" />
            <mxPoint x="1010" y="1100" as="targetPoint" />
          </mxGeometry>
        </mxCell>
        <mxCell id="z-6VyDmkETw24ebPGws4-11" value="Extends" style="endArrow=block;endSize=16;endFill=0;html=1;rounded=0;entryX=0;entryY=0;entryDx=0;entryDy=0;" edge="1" parent="WIyWlLk6GJQsqaUBKTNV-1" target="z-6VyDmkETw24ebPGws4-5">
          <mxGeometry width="160" relative="1" as="geometry">
            <mxPoint x="1200" y="860" as="sourcePoint" />
            <mxPoint x="1060" y="1130" as="targetPoint" />
          </mxGeometry>
        </mxCell>
        <mxCell id="z-6VyDmkETw24ebPGws4-12" value="&lt;p style=&quot;margin:0px;margin-top:4px;text-align:center;&quot;&gt;&lt;b&gt;Class&lt;/b&gt;&lt;/p&gt;&lt;hr&gt;&lt;div&gt;int value&lt;/div&gt;&lt;div&gt;GamePanel gp&lt;/div&gt;&lt;hr&gt;&lt;div&gt;OBJ_blue_pot(GamePanel gp)&lt;/div&gt;&lt;div&gt;use(Entity entity)&lt;/div&gt;" style="verticalAlign=top;align=left;overflow=fill;fontSize=12;fontFamily=Helvetica;html=1;whiteSpace=wrap;" vertex="1" parent="WIyWlLk6GJQsqaUBKTNV-1">
          <mxGeometry x="500" y="1340" width="180" height="160" as="geometry" />
        </mxCell>
        <mxCell id="z-6VyDmkETw24ebPGws4-13" value="" style="endArrow=none;html=1;rounded=0;entryX=0.5;entryY=0;entryDx=0;entryDy=0;" edge="1" parent="WIyWlLk6GJQsqaUBKTNV-1" target="z-6VyDmkETw24ebPGws4-12">
          <mxGeometry width="50" height="50" relative="1" as="geometry">
            <mxPoint x="590" y="1240" as="sourcePoint" />
            <mxPoint x="1040" y="1360" as="targetPoint" />
          </mxGeometry>
        </mxCell>
        <mxCell id="z-6VyDmkETw24ebPGws4-14" value="Extends" style="endArrow=block;endSize=16;endFill=0;html=1;rounded=0;exitX=1;exitY=0.5;exitDx=0;exitDy=0;" edge="1" parent="WIyWlLk6GJQsqaUBKTNV-1" source="z-6VyDmkETw24ebPGws4-12" target="z-6VyDmkETw24ebPGws4-15">
          <mxGeometry width="160" relative="1" as="geometry">
            <mxPoint x="940" y="1390" as="sourcePoint" />
            <mxPoint x="790" y="1420" as="targetPoint" />
          </mxGeometry>
        </mxCell>
        <mxCell id="z-6VyDmkETw24ebPGws4-15" value="&lt;p style=&quot;margin:0px;margin-top:4px;text-align:center;&quot;&gt;&lt;b&gt;SuperObject&lt;/b&gt;&lt;/p&gt;&lt;hr&gt;&lt;div&gt;String description&lt;/div&gt;&lt;div&gt;BufferedImage image&lt;/div&gt;&lt;div&gt;BufferedImage image2&lt;/div&gt;&lt;div&gt;BufferedImage image3&lt;/div&gt;&lt;div&gt;String name&lt;/div&gt;&lt;div&gt;boolean collision&lt;/div&gt;&lt;div&gt;int worldX&lt;/div&gt;&lt;div&gt;int worldY&lt;/div&gt;&lt;div&gt;Rectangle solidArea&lt;/div&gt;&lt;div&gt;int solidAreaDefaultX&lt;/div&gt;&lt;div&gt;int solidAreaDefaultY&lt;/div&gt;&lt;div&gt;int attackAttribute&lt;/div&gt;&lt;div&gt;int defenceAttribute&lt;/div&gt;&lt;div&gt;double speedAttribute&lt;/div&gt;&lt;div&gt;boolean haveSpeedAttribute&lt;/div&gt;&lt;div&gt;int type&lt;/div&gt;&lt;hr&gt;&lt;div&gt;void showMessage()&lt;/div&gt;&lt;div&gt;boolean checkRequirements()&lt;/div&gt;&lt;div&gt;String getMessagge()&lt;/div&gt;&lt;div&gt;void use(Entity entity)&lt;/div&gt;&lt;div&gt;void draw(Graphics2D g2, GamePanel gp)&lt;/div&gt;" style="verticalAlign=top;align=left;overflow=fill;fontSize=12;fontFamily=Helvetica;html=1;whiteSpace=wrap;" vertex="1" parent="WIyWlLk6GJQsqaUBKTNV-1">
          <mxGeometry x="764" y="1390" width="250" height="470" as="geometry" />
        </mxCell>
      </root>
    </mxGraphModel>
  </diagram>
</mxfile>
